<?xml version="1.0" encoding="UTF-8" standalone="no"?>
<!-- Created with Inkscape (http://www.inkscape.org/) -->

<svg
   xmlns:dc="http://purl.org/dc/elements/1.1/"
   xmlns:cc="http://creativecommons.org/ns#"
   xmlns:rdf="http://www.w3.org/1999/02/22-rdf-syntax-ns#"
   xmlns:svg="http://www.w3.org/2000/svg"
   xmlns="http://www.w3.org/2000/svg"
   xmlns:sodipodi="http://sodipodi.sourceforge.net/DTD/sodipodi-0.dtd"
   xmlns:inkscape="http://www.inkscape.org/namespaces/inkscape"
   width="40.479382mm"
   height="33.951057mm"
   viewBox="0 0 40.479382 33.951057"
   version="1.1"
   id="svg8"
   sodipodi:docname="kfcd.svg"
   inkscape:version="0.92.3 (2405546, 2018-03-11)">
  <defs
     id="defs2" />
  <sodipodi:namedview
     id="base"
     pagecolor="#ffffff"
     bordercolor="#666666"
     borderopacity="1.0"
     inkscape:pageopacity="0.0"
     inkscape:pageshadow="2"
     inkscape:zoom="1.4"
     inkscape:cx="262.15616"
     inkscape:cy="149.35034"
     inkscape:document-units="mm"
     inkscape:current-layer="layer1"
     showgrid="false"
     inkscape:window-width="2560"
     inkscape:window-height="1331"
     inkscape:window-x="0"
     inkscape:window-y="0"
     inkscape:window-maximized="1"
     showguides="true"
     inkscape:guide-bbox="true"
     fit-margin-top="0"
     fit-margin-left="0"
     fit-margin-right="0"
     fit-margin-bottom="0" />
  <metadata
     id="metadata5">
    <rdf:RDF>
      <cc:Work
         rdf:about="">
        <dc:format>image/svg+xml</dc:format>
        <dc:type
           rdf:resource="http://purl.org/dc/dcmitype/StillImage" />
        <dc:title></dc:title>
      </cc:Work>
    </rdf:RDF>
  </metadata>
  <g
     inkscape:label="Layer 1"
     inkscape:groupmode="layer"
     id="layer1"
     transform="translate(-82.977521,-177.34792)">
    <flowRoot
       xml:space="preserve"
       id="flowRoot1139"
       style="font-style:normal;font-weight:normal;font-size:40px;line-height:1.25;font-family:sans-serif;letter-spacing:0px;word-spacing:0px;fill:#000000;fill-opacity:1;stroke:none"><flowRegion
         id="flowRegion1141"><rect
           id="rect1143"
           width="205.35715"
           height="199.64285"
           x="286.07144"
           y="433.94824" /></flowRegion><flowPara
         id="flowPara1145" /></flowRoot>    <g
       id="g855">
      <rect
         style="fill:#ffffff;fill-opacity:1;stroke:#f14a4a;stroke-width:0.52916944;stroke-miterlimit:4;stroke-dasharray:none;stroke-opacity:1"
         id="rect1309"
         width="16.771317"
         height="20.64661"
         x="12.685744"
         y="209.62076"
         ry="1.3507301"
         transform="matrix(0.90712064,-0.4208707,0.4208779,0.9071173,0,0)" />
      <rect
         transform="matrix(0.90790448,-0.41917711,0.42257539,0.90632778,0,0)"
         ry="1.335964"
         y="209.30681"
         x="11.849514"
         height="20.420902"
         width="16.640497"
         id="rect1325"
         style="fill:#ffffff;fill-opacity:1;stroke:#ffcc00;stroke-width:0.72400254;stroke-miterlimit:4;stroke-dasharray:none;stroke-opacity:1" />
      <rect
         transform="matrix(0.90712064,-0.4208707,0.4208779,0.9071173,0,0)"
         ry="1.3507301"
         y="209.69397"
         x="-6.0153966"
         height="20.64661"
         width="16.771317"
         id="rect1311"
         style="fill:#ffffff;fill-opacity:1;stroke:#f14a4a;stroke-width:0.52916944;stroke-miterlimit:4;stroke-dasharray:none;stroke-opacity:1" />
      <rect
         style="fill:#ffffff;fill-opacity:1;stroke:#ffcc00;stroke-width:0.82400292;stroke-miterlimit:4;stroke-dasharray:none;stroke-opacity:1"
         id="rect1327"
         width="16.640676"
         height="20.420948"
         x="-5.920578"
         y="209.37338"
         ry="1.3359669"
         transform="matrix(0.9079066,-0.41917253,0.42257999,0.90632563,0,0)" />
      <rect
         transform="rotate(-24.88982)"
         ry="1.3507276"
         y="208.55983"
         x="-5.1474676"
         height="20.646572"
         width="16.771164"
         id="rect1313"
         style="fill:#ffffff;fill-opacity:1;stroke:#000000;stroke-width:0.52916664;stroke-miterlimit:4;stroke-dasharray:none;stroke-opacity:1" />
      <rect
         ry="1.1412741"
         style="fill:#ffffff;fill-opacity:1;stroke:#000000;stroke-width:0.52916664;stroke-miterlimit:4;stroke-dasharray:none;stroke-opacity:1"
         id="rect1315"
         width="16.771164"
         height="20.646572"
         x="11.623855"
         y="208.55983"
         transform="rotate(-24.88982)" />
      <g
         aria-label="開"
         transform="matrix(0.24150754,-0.10806688,0.10806688,0.24150754,-49.80853,102.26072)"
         style="font-style:normal;font-weight:normal;font-size:40px;line-height:1.25;font-family:sans-serif;letter-spacing:0px;word-spacing:0px;fill:#000000;fill-opacity:1;stroke:none;stroke-width:0.37795275;stroke-miterlimit:4;stroke-dasharray:none"
         id="g1319">
        <path
           inkscape:connector-curvature="0"
           d="m 348.70961,536.74539 v 3.24 h -8.76 v -3.24 z m -8.76,8.8 v -3.44 h 8.76 v 3.44 z m 11.56,2.28 v -13.36 h -14.48 v 34.84 h 2.92 v -21.48 z m -1.12,9.28 v -4.32 h 5.6 v 4.32 z m 13.68,2.52 v -2.52 h -5.44 v -4.32 h 4.56 v -2.44 h -19.72 v 2.44 h 4.32 v 4.32 h -5.08 v 2.52 h 5 c -0.24,2.32 -1.36,5.64 -4.72,7.68 0.64,0.4 1.52,1.24 1.96,1.76 3.84,-2.6 5.12,-6.76 5.36,-9.44 h 5.68 v 8.92 h 2.64 v -8.92 z m -6.2,-14.04 v -3.48 h 9.08 v 3.48 z m 9.08,-8.84 v 3.24 h -9.08 v -3.24 z m 2.92,-2.28 h -14.84 v 13.4 h 11.92 v 17.52 c 0,0.64 -0.2,0.88 -0.84,0.88 -0.6,0.04 -2.76,0.04 -4.96,-0.04 0.44,0.8 0.88,2.2 0.96,2.96 3,0.04 5,-0.04 6.2,-0.52 1.16,-0.52 1.56,-1.48 1.56,-3.24 z"
           style="font-style:normal;font-variant:normal;font-weight:normal;font-stretch:normal;font-size:40px;font-family:sans-serif;-inkscape-font-specification:'sans-serif, Normal';font-variant-ligatures:normal;font-variant-caps:normal;font-variant-numeric:normal;font-feature-settings:normal;text-align:start;writing-mode:lr-tb;text-anchor:start;fill:#000000;fill-opacity:1;stroke:#000000;stroke-width:1.1338582;stroke-miterlimit:4;stroke-dasharray:none;stroke-opacity:1"
           id="path1317" />
      </g>
      <g
         aria-label="放"
         transform="rotate(-24.106985,29.648577,128.1148)"
         style="font-style:normal;font-weight:normal;font-size:10.58333302px;line-height:1.25;font-family:sans-serif;letter-spacing:0px;word-spacing:0px;fill:#000000;fill-opacity:1;stroke:none;stroke-width:0.1;stroke-miterlimit:4;stroke-dasharray:none"
         id="g1323">
        <path
           d="m 76.427707,214.60677 c -0.105833,-0.381 -0.34925,-0.96308 -0.5715,-1.40758 l -0.677333,0.20108 c 0.201083,0.4445 0.4445,1.04775 0.53975,1.43934 z m -0.963083,2.45534 v -1.40759 h 2.667 v -0.73025 h -4.66725 v 0.73025 h 1.248833 v 2.19075 c 0,1.49225 -0.15875,3.15384 -1.439333,4.51909 0.1905,0.127 0.4445,0.33866 0.582083,0.508 1.397,-1.49225 1.608667,-3.28084 1.608667,-5.0165 v -0.0741 h 1.42875 c -0.0635,2.89984 -0.137584,3.91584 -0.3175,4.14867 -0.07408,0.11642 -0.169334,0.14817 -0.306917,0.14817 -0.169333,0 -0.560917,-0.0106 -0.994833,-0.0529 0.116416,0.21167 0.1905,0.51858 0.211666,0.73025 0.4445,0.0317 0.867834,0.0317 1.132417,0 0.275167,-0.0318 0.455083,-0.11642 0.624417,-0.33867 0.264583,-0.37041 0.338666,-1.53458 0.41275,-4.99533 0.01058,-0.10583 0.01058,-0.35983 0.01058,-0.35983 z m 6.085416,-1.15359 c -0.201083,1.35467 -0.518583,2.48709 -1.016,3.43959 -0.465666,-0.96309 -0.783166,-2.0955 -1.005416,-3.33375 0.01058,-0.0318 0.02117,-0.0741 0.04233,-0.10584 z m 1.55575,0 v -0.73025 h -3.302 c 0.169334,-0.59266 0.306917,-1.21708 0.433917,-1.8415 l -0.79375,-0.127 c -0.328083,1.80975 -0.910167,3.57717 -1.767417,4.68842 0.179917,0.13758 0.486834,0.43392 0.613834,0.59267 0.275166,-0.39159 0.53975,-0.8255 0.762,-1.31234 0.264583,1.09009 0.592666,2.08492 1.026583,2.94217 -0.613833,0.889 -1.439333,1.5875 -2.54,2.0955 0.148167,0.16933 0.381,0.508 0.455083,0.68792 1.04775,-0.53975 1.87325,-1.21709 2.50825,-2.05317 0.550334,0.85725 1.259417,1.54517 2.148417,2.01083 0.127,-0.22225 0.370416,-0.51858 0.550333,-0.67733 -0.931333,-0.43392 -1.651,-1.143 -2.2225,-2.04258 0.656167,-1.143 1.090083,-2.52942 1.354667,-4.23334 z"
           style="stroke:#000000;stroke-width:0.30000001;stroke-miterlimit:4;stroke-dasharray:none;stroke-opacity:1"
           id="path1321"
           inkscape:connector-curvature="0" />
      </g>
    </g>
  </g>
</svg>
